<mxfile host="app.diagrams.net" modified="2022-02-09T04:46:15.769Z" agent="5.0 (Macintosh; Intel Mac OS X 10_15_7) AppleWebKit/537.36 (KHTML, like Gecko) Chrome/96.0.4664.110 Safari/537.36" etag="uPMWetUPSXka6yPsp-dV" version="16.2.6" type="github">
  <diagram id="bBLivlw6Nt116pZUi4gK" name="第 1 页">
    <mxGraphModel dx="946" dy="531" grid="1" gridSize="10" guides="1" tooltips="1" connect="1" arrows="1" fold="1" page="1" pageScale="1" pageWidth="827" pageHeight="1169" math="0" shadow="0">
      <root>
        <mxCell id="0" />
        <mxCell id="1" parent="0" />
        <mxCell id="oEGm3fdyikg0hxGNy2XW-10" style="edgeStyle=orthogonalEdgeStyle;curved=1;rounded=0;orthogonalLoop=1;jettySize=auto;html=1;entryX=0.5;entryY=0;entryDx=0;entryDy=0;" edge="1" parent="1" source="oEGm3fdyikg0hxGNy2XW-2" target="oEGm3fdyikg0hxGNy2XW-4">
          <mxGeometry relative="1" as="geometry" />
        </mxCell>
        <mxCell id="oEGm3fdyikg0hxGNy2XW-2" value="大木场&lt;br&gt;+22" style="rounded=1;whiteSpace=wrap;html=1;" vertex="1" parent="1">
          <mxGeometry x="195" y="90" width="60" height="40" as="geometry" />
        </mxCell>
        <mxCell id="oEGm3fdyikg0hxGNy2XW-12" style="edgeStyle=orthogonalEdgeStyle;curved=1;rounded=0;orthogonalLoop=1;jettySize=auto;html=1;entryX=0.5;entryY=0;entryDx=0;entryDy=0;exitX=0.5;exitY=1;exitDx=0;exitDy=0;" edge="1" parent="1" source="oEGm3fdyikg0hxGNy2XW-3" target="oEGm3fdyikg0hxGNy2XW-4">
          <mxGeometry relative="1" as="geometry" />
        </mxCell>
        <mxCell id="oEGm3fdyikg0hxGNy2XW-3" value="伐木场&lt;br&gt;+2" style="rounded=1;whiteSpace=wrap;html=1;" vertex="1" parent="1">
          <mxGeometry x="275" y="90" width="60" height="40" as="geometry" />
        </mxCell>
        <mxCell id="oEGm3fdyikg0hxGNy2XW-23" style="rounded=0;orthogonalLoop=1;jettySize=auto;html=1;exitX=0.5;exitY=1;exitDx=0;exitDy=0;" edge="1" parent="1" source="oEGm3fdyikg0hxGNy2XW-4" target="oEGm3fdyikg0hxGNy2XW-21">
          <mxGeometry relative="1" as="geometry" />
        </mxCell>
        <mxCell id="oEGm3fdyikg0hxGNy2XW-44" value="&amp;nbsp;4&amp;nbsp;" style="edgeLabel;html=1;align=center;verticalAlign=middle;resizable=0;points=[];" vertex="1" connectable="0" parent="oEGm3fdyikg0hxGNy2XW-23">
          <mxGeometry x="-0.4157" y="1" relative="1" as="geometry">
            <mxPoint y="1" as="offset" />
          </mxGeometry>
        </mxCell>
        <mxCell id="oEGm3fdyikg0hxGNy2XW-39" style="rounded=0;orthogonalLoop=1;jettySize=auto;html=1;exitX=0.5;exitY=1;exitDx=0;exitDy=0;entryX=0.5;entryY=0;entryDx=0;entryDy=0;" edge="1" parent="1" source="oEGm3fdyikg0hxGNy2XW-4" target="oEGm3fdyikg0hxGNy2XW-32">
          <mxGeometry relative="1" as="geometry" />
        </mxCell>
        <mxCell id="oEGm3fdyikg0hxGNy2XW-40" value="&amp;nbsp;4&amp;nbsp;" style="edgeLabel;html=1;align=center;verticalAlign=middle;resizable=0;points=[];" vertex="1" connectable="0" parent="oEGm3fdyikg0hxGNy2XW-39">
          <mxGeometry x="-0.0162" relative="1" as="geometry">
            <mxPoint as="offset" />
          </mxGeometry>
        </mxCell>
        <mxCell id="oEGm3fdyikg0hxGNy2XW-4" value="木头" style="ellipse;whiteSpace=wrap;html=1;aspect=fixed;" vertex="1" parent="1">
          <mxGeometry x="240" y="170" width="50" height="50" as="geometry" />
        </mxCell>
        <mxCell id="oEGm3fdyikg0hxGNy2XW-15" style="edgeStyle=orthogonalEdgeStyle;curved=1;rounded=0;orthogonalLoop=1;jettySize=auto;html=1;entryX=0.5;entryY=0;entryDx=0;entryDy=0;" edge="1" parent="1" source="oEGm3fdyikg0hxGNy2XW-13" target="oEGm3fdyikg0hxGNy2XW-14">
          <mxGeometry relative="1" as="geometry" />
        </mxCell>
        <mxCell id="oEGm3fdyikg0hxGNy2XW-13" value="农场&lt;br&gt;+12" style="rounded=1;whiteSpace=wrap;html=1;" vertex="1" parent="1">
          <mxGeometry x="80" y="90" width="60" height="40" as="geometry" />
        </mxCell>
        <mxCell id="oEGm3fdyikg0hxGNy2XW-34" style="rounded=0;orthogonalLoop=1;jettySize=auto;html=1;entryX=0.5;entryY=0;entryDx=0;entryDy=0;" edge="1" parent="1" source="oEGm3fdyikg0hxGNy2XW-14" target="oEGm3fdyikg0hxGNy2XW-29">
          <mxGeometry relative="1" as="geometry" />
        </mxCell>
        <mxCell id="oEGm3fdyikg0hxGNy2XW-35" value="&amp;nbsp;5&amp;nbsp;" style="edgeLabel;html=1;align=center;verticalAlign=middle;resizable=0;points=[];" vertex="1" connectable="0" parent="oEGm3fdyikg0hxGNy2XW-34">
          <mxGeometry x="-0.2" y="-3" relative="1" as="geometry">
            <mxPoint as="offset" />
          </mxGeometry>
        </mxCell>
        <mxCell id="oEGm3fdyikg0hxGNy2XW-37" style="rounded=0;orthogonalLoop=1;jettySize=auto;html=1;exitX=0.5;exitY=1;exitDx=0;exitDy=0;entryX=0.5;entryY=0;entryDx=0;entryDy=0;" edge="1" parent="1" source="oEGm3fdyikg0hxGNy2XW-14" target="oEGm3fdyikg0hxGNy2XW-32">
          <mxGeometry relative="1" as="geometry" />
        </mxCell>
        <mxCell id="oEGm3fdyikg0hxGNy2XW-38" value="&amp;nbsp;50&amp;nbsp;" style="edgeLabel;html=1;align=center;verticalAlign=middle;resizable=0;points=[];" vertex="1" connectable="0" parent="oEGm3fdyikg0hxGNy2XW-37">
          <mxGeometry x="0.1091" y="-2" relative="1" as="geometry">
            <mxPoint as="offset" />
          </mxGeometry>
        </mxCell>
        <mxCell id="oEGm3fdyikg0hxGNy2XW-14" value="食物" style="ellipse;whiteSpace=wrap;html=1;aspect=fixed;" vertex="1" parent="1">
          <mxGeometry x="85" y="170" width="50" height="50" as="geometry" />
        </mxCell>
        <mxCell id="oEGm3fdyikg0hxGNy2XW-17" style="edgeStyle=orthogonalEdgeStyle;curved=1;rounded=0;orthogonalLoop=1;jettySize=auto;html=1;entryX=0.5;entryY=0;entryDx=0;entryDy=0;" edge="1" parent="1" source="oEGm3fdyikg0hxGNy2XW-18" target="oEGm3fdyikg0hxGNy2XW-19">
          <mxGeometry relative="1" as="geometry" />
        </mxCell>
        <mxCell id="oEGm3fdyikg0hxGNy2XW-18" value="采石场&lt;br&gt;+2" style="rounded=1;whiteSpace=wrap;html=1;" vertex="1" parent="1">
          <mxGeometry x="384" y="90" width="60" height="40" as="geometry" />
        </mxCell>
        <mxCell id="oEGm3fdyikg0hxGNy2XW-24" style="rounded=0;orthogonalLoop=1;jettySize=auto;html=1;exitX=0.5;exitY=1;exitDx=0;exitDy=0;entryX=0.5;entryY=0;entryDx=0;entryDy=0;" edge="1" parent="1" source="oEGm3fdyikg0hxGNy2XW-19" target="oEGm3fdyikg0hxGNy2XW-21">
          <mxGeometry relative="1" as="geometry">
            <mxPoint x="330" y="320" as="targetPoint" />
          </mxGeometry>
        </mxCell>
        <mxCell id="oEGm3fdyikg0hxGNy2XW-27" value="&amp;nbsp;2&amp;nbsp;" style="edgeLabel;html=1;align=center;verticalAlign=middle;resizable=0;points=[];" vertex="1" connectable="0" parent="oEGm3fdyikg0hxGNy2XW-24">
          <mxGeometry x="-0.2317" y="-7" relative="1" as="geometry">
            <mxPoint x="6" as="offset" />
          </mxGeometry>
        </mxCell>
        <mxCell id="oEGm3fdyikg0hxGNy2XW-41" style="rounded=0;orthogonalLoop=1;jettySize=auto;html=1;exitX=0.5;exitY=1;exitDx=0;exitDy=0;entryX=0.75;entryY=0;entryDx=0;entryDy=0;" edge="1" parent="1" source="oEGm3fdyikg0hxGNy2XW-19" target="oEGm3fdyikg0hxGNy2XW-32">
          <mxGeometry relative="1" as="geometry" />
        </mxCell>
        <mxCell id="oEGm3fdyikg0hxGNy2XW-42" value="&amp;nbsp;4&amp;nbsp;" style="edgeLabel;html=1;align=center;verticalAlign=middle;resizable=0;points=[];" vertex="1" connectable="0" parent="oEGm3fdyikg0hxGNy2XW-41">
          <mxGeometry x="-0.3103" y="-3" relative="1" as="geometry">
            <mxPoint as="offset" />
          </mxGeometry>
        </mxCell>
        <mxCell id="oEGm3fdyikg0hxGNy2XW-19" value="石头" style="ellipse;whiteSpace=wrap;html=1;aspect=fixed;" vertex="1" parent="1">
          <mxGeometry x="389" y="170" width="50" height="50" as="geometry" />
        </mxCell>
        <mxCell id="oEGm3fdyikg0hxGNy2XW-20" style="edgeStyle=orthogonalEdgeStyle;curved=1;rounded=0;orthogonalLoop=1;jettySize=auto;html=1;entryX=0.5;entryY=0;entryDx=0;entryDy=0;" edge="1" parent="1" source="oEGm3fdyikg0hxGNy2XW-21" target="oEGm3fdyikg0hxGNy2XW-22">
          <mxGeometry relative="1" as="geometry" />
        </mxCell>
        <mxCell id="oEGm3fdyikg0hxGNy2XW-21" value="长矛工坊&lt;br&gt;+1" style="rounded=1;whiteSpace=wrap;html=1;" vertex="1" parent="1">
          <mxGeometry x="305" y="392" width="60" height="40" as="geometry" />
        </mxCell>
        <mxCell id="oEGm3fdyikg0hxGNy2XW-22" value="长矛" style="ellipse;whiteSpace=wrap;html=1;aspect=fixed;" vertex="1" parent="1">
          <mxGeometry x="310" y="472" width="50" height="50" as="geometry" />
        </mxCell>
        <mxCell id="oEGm3fdyikg0hxGNy2XW-28" style="edgeStyle=orthogonalEdgeStyle;curved=1;rounded=0;orthogonalLoop=1;jettySize=auto;html=1;entryX=0.5;entryY=0;entryDx=0;entryDy=0;" edge="1" parent="1" source="oEGm3fdyikg0hxGNy2XW-29" target="oEGm3fdyikg0hxGNy2XW-30">
          <mxGeometry relative="1" as="geometry" />
        </mxCell>
        <mxCell id="oEGm3fdyikg0hxGNy2XW-29" value="帐篷&lt;br&gt;+10" style="rounded=1;whiteSpace=wrap;html=1;" vertex="1" parent="1">
          <mxGeometry x="35" y="392" width="60" height="40" as="geometry" />
        </mxCell>
        <mxCell id="oEGm3fdyikg0hxGNy2XW-30" value="长矛" style="ellipse;whiteSpace=wrap;html=1;aspect=fixed;" vertex="1" parent="1">
          <mxGeometry x="40" y="472" width="50" height="50" as="geometry" />
        </mxCell>
        <mxCell id="oEGm3fdyikg0hxGNy2XW-31" style="edgeStyle=orthogonalEdgeStyle;curved=1;rounded=0;orthogonalLoop=1;jettySize=auto;html=1;entryX=0.5;entryY=0;entryDx=0;entryDy=0;" edge="1" parent="1" source="oEGm3fdyikg0hxGNy2XW-32" target="oEGm3fdyikg0hxGNy2XW-33">
          <mxGeometry relative="1" as="geometry" />
        </mxCell>
        <mxCell id="oEGm3fdyikg0hxGNy2XW-32" value="泥瓦房&lt;br&gt;+135" style="rounded=1;whiteSpace=wrap;html=1;" vertex="1" parent="1">
          <mxGeometry x="115" y="392" width="60" height="40" as="geometry" />
        </mxCell>
        <mxCell id="oEGm3fdyikg0hxGNy2XW-33" value="长矛" style="ellipse;whiteSpace=wrap;html=1;aspect=fixed;" vertex="1" parent="1">
          <mxGeometry x="120" y="472" width="50" height="50" as="geometry" />
        </mxCell>
      </root>
    </mxGraphModel>
  </diagram>
</mxfile>
